<?xml version="1.0" standalone="no"?>
<!DOCTYPE svg PUBLIC "-//W3C//DTD SVG 20010904//EN"
 "http://www.w3.org/TR/2001/REC-SVG-20010904/DTD/svg10.dtd">
<svg version="1.0" xmlns="http://www.w3.org/2000/svg"
 width="128.000000pt" height="128.000000pt" viewBox="0 0 128.000000 128.000000"
 preserveAspectRatio="xMidYMid meet">
<metadata>
Created by potrace 1.11, written by Peter Selinger 2001-2013
</metadata>
<g transform="translate(0.000000,128.000000) scale(0.100000,-0.100000)"
fill="#000000" stroke="none">
<path d="M95 1043 c-69 -14 -65 -11 -65 -58 0 -31 5 -47 18 -54 16 -9 17 -37
18 -348 l1 -338 53 -3 c100 -6 96 -13 91 144 -3 133 1 153 30 154 3 0 16 -39
29 -86 55 -209 135 -282 225 -203 49 43 47 93 -5 100 -20 3 -34 22 -76 108
l-51 104 37 36 c47 45 70 117 70 216 0 114 -31 180 -100 215 -33 17 -58 20
-147 19 -59 -1 -117 -3 -128 -6z m202 -119 c44 -28 53 -146 17 -216 -15 -28
-60 -58 -89 -58 -13 0 -15 21 -15 144 0 106 3 146 13 149 15 7 46 -1 74 -19z"/>
<path d="M1140 1001 c0 -48 -64 -451 -77 -481 -8 -19 -18 34 -43 230 -22 173
-35 227 -58 253 -20 23 -83 22 -113 -1 l-22 -19 17 -69 c18 -69 18 -69 -11
-242 l-29 -173 -48 253 c-27 139 -51 259 -54 267 -7 19 -112 10 -146 -12 -35
-23 -37 -77 -4 -92 30 -14 57 -102 124 -410 39 -179 59 -254 72 -263 9 -7 35
-12 56 -10 47 4 44 -4 80 213 14 81 27 149 28 151 2 2 18 -74 35 -168 17 -94
36 -175 41 -180 6 -6 31 -13 56 -15 54 -7 49 -16 105 183 112 394 137 547 98
607 -15 23 -25 27 -62 27 l-45 0 0 -49z"/>
</g>
</svg>
