<?xml version="1.0" standalone="no"?>
<!DOCTYPE svg PUBLIC "-//W3C//DTD SVG 20010904//EN"
 "http://www.w3.org/TR/2001/REC-SVG-20010904/DTD/svg10.dtd">
<svg version="1.0" xmlns="http://www.w3.org/2000/svg"
 width="512.000000pt" height="512.000000pt" viewBox="0 0 512.000000 512.000000"
 preserveAspectRatio="xMidYMid meet">
<metadata>
Created by potrace 1.11, written by Peter Selinger 2001-2013
</metadata>
<g transform="translate(0.000000,512.000000) scale(0.100000,-0.100000)"
fill="#000000" stroke="none">
<path d="M857 4204 c-1 -1 -58 -4 -127 -8 -69 -3 -136 -8 -150 -10 -14 -2 -54
-7 -90 -11 -36 -3 -74 -8 -85 -10 -11 -3 -38 -7 -60 -10 -73 -10 -202 -37
-216 -45 -22 -14 -15 -248 10 -311 5 -13 25 -32 44 -43 49 -25 86 -98 95 -183
10 -89 7 -1967 -2 -2103 -4 -58 -9 -127 -12 -155 -2 -27 -7 -86 -10 -130 -12
-138 -12 -140 39 -169 103 -60 335 -55 499 11 l40 16 -6 115 c-16 308 -27 991
-16 993 3 0 21 2 40 4 19 2 60 6 91 10 l56 6 12 -63 c13 -69 57 -248 71 -288
5 -14 23 -72 41 -130 27 -89 64 -193 98 -275 64 -156 187 -356 254 -412 67
-57 141 -83 235 -85 56 -1 142 45 218 115 66 61 144 171 144 203 0 10 -10 52
-23 92 -21 69 -24 75 -59 87 -21 7 -41 8 -46 3 -4 -4 -23 -13 -41 -18 -29 -8
-35 -6 -64 24 -60 62 -131 196 -409 776 l-46 95 61 39 c262 172 395 476 401
921 4 275 -61 502 -191 662 -55 68 -55 68 -113 115 -99 79 -221 136 -341 158
-51 10 -333 21 -342 14z m255 -443 c66 -25 140 -94 169 -158 41 -90 53 -162
53 -323 1 -85 -2 -182 -7 -216 -17 -135 -59 -246 -118 -312 -77 -86 -237 -160
-353 -165 l-49 -2 -1 588 c-1 324 1 593 4 597 16 26 225 19 302 -9z"/>
<path d="M4626 4198 c-50 -11 -91 -36 -107 -64 -9 -18 -9 -32 0 -67 27 -96 21
-193 -34 -542 -14 -82 -27 -168 -30 -190 -3 -22 -8 -51 -11 -65 -2 -14 -7 -38
-10 -55 -2 -16 -9 -57 -15 -90 -6 -33 -13 -73 -16 -90 -34 -220 -201 -1156
-206 -1162 -2 -2 -12 43 -22 99 -10 57 -20 108 -21 113 -7 33 -25 136 -29 170
-4 22 -8 47 -10 55 -2 8 -7 40 -10 70 -3 30 -8 62 -10 70 -2 8 -7 38 -10 65
-3 28 -7 61 -10 75 -2 14 -11 84 -20 155 -8 72 -18 146 -20 165 -19 154 -25
201 -30 245 -8 65 -14 113 -20 150 -3 17 -7 53 -10 80 -6 56 -16 110 -51 274
-55 254 -113 361 -225 410 -96 43 -231 3 -342 -100 l-58 -54 15 -50 c21 -71
61 -220 97 -363 l31 -124 -31 -156 c-17 -86 -35 -179 -41 -207 -5 -27 -12 -66
-15 -85 -3 -19 -10 -60 -15 -90 -9 -53 -16 -92 -26 -155 -2 -16 -9 -55 -14
-85 -5 -30 -12 -73 -15 -95 -3 -23 -7 -50 -9 -60 -3 -18 -10 -62 -22 -137 -2
-16 -6 -40 -9 -55 -2 -16 -7 -50 -11 -78 -3 -27 -8 -59 -10 -70 -5 -24 -16
-93 -19 -120 -1 -11 -3 -36 -4 -54 -2 -50 -17 -27 -29 44 -6 33 -34 179 -62
325 -28 146 -53 281 -56 300 -3 19 -9 51 -14 70 -5 19 -11 51 -14 70 -3 19 -8
46 -11 60 -3 14 -7 36 -10 50 -2 14 -14 75 -25 135 -12 61 -25 135 -30 165 -6
30 -12 66 -15 80 -6 25 -72 363 -81 410 -36 197 -88 410 -110 452 l-16 31
-126 -6 c-192 -10 -303 -47 -439 -149 l-53 -39 0 -67 c0 -58 20 -165 33 -178
2 -3 28 -7 58 -9 68 -6 84 -24 131 -149 30 -78 98 -297 113 -361 2 -11 25 -99
50 -195 24 -96 47 -188 50 -203 3 -16 15 -68 26 -115 17 -73 84 -383 94 -432
2 -12 35 -167 71 -335 2 -11 8 -42 13 -70 18 -92 130 -599 146 -660 9 -33 24
-73 33 -90 34 -58 154 -110 247 -108 55 1 131 15 142 26 11 11 64 199 76 272
3 17 20 111 37 210 17 99 33 191 35 205 2 14 13 81 24 150 11 69 23 143 26
165 3 22 8 51 10 65 3 14 7 43 10 65 3 22 10 63 15 90 6 28 12 70 15 95 3 25
7 56 10 70 3 14 7 36 9 50 8 50 20 115 22 123 1 4 3 15 4 25 2 18 18 -51 45
-198 8 -47 17 -96 20 -110 3 -14 12 -63 20 -110 8 -47 17 -95 19 -106 2 -12 7
-37 10 -55 7 -44 34 -188 40 -215 2 -12 7 -39 10 -60 7 -45 17 -100 23 -129 2
-11 8 -42 13 -70 6 -27 12 -61 15 -75 3 -14 8 -38 11 -55 17 -98 56 -259 68
-287 7 -18 23 -43 35 -56 27 -28 108 -69 153 -78 49 -9 152 -6 196 6 l39 10
58 203 c31 111 74 263 95 337 21 74 59 209 85 300 52 182 203 733 210 765 2
11 31 126 64 255 32 129 71 288 85 353 74 328 100 595 70 707 -18 66 -66 165
-97 200 -73 82 -174 119 -271 98z"/>
</g>
</svg>
