<?xml version="1.0" encoding="utf-8"?>
<!-- Generator: Adobe Illustrator 16.0.0, SVG Export Plug-In . SVG Version: 6.00 Build 0)  -->
<!DOCTYPE svg PUBLIC "-//W3C//DTD SVG 1.1//EN" "http://www.w3.org/Graphics/SVG/1.1/DTD/svg11.dtd">
<svg version="1.1" id="Layer_1" xmlns="http://www.w3.org/2000/svg" xmlns:xlink="http://www.w3.org/1999/xlink" x="0px" y="0px"
	 width="1280px" height="800px" viewBox="0 0 1280 800" enable-background="new 0 0 1280 800" xml:space="preserve">
<metadata><?xpacket begin="﻿" id="W5M0MpCehiHzreSzNTczkc9d"?>
<x:xmpmeta xmlns:x="adobe:ns:meta/" x:xmptk="Adobe XMP Core 5.3-c011 66.145661, 2012/02/06-14:56:27        ">
   <rdf:RDF xmlns:rdf="http://www.w3.org/1999/02/22-rdf-syntax-ns#">
      <rdf:Description rdf:about=""
            xmlns:dc="http://purl.org/dc/elements/1.1/">
         <dc:format>image/svg+xml</dc:format>
         <dc:title>
            <rdf:Alt>
               <rdf:li xml:lang="x-default">Web</rdf:li>
            </rdf:Alt>
         </dc:title>
      </rdf:Description>
      <rdf:Description rdf:about=""
            xmlns:xmp="http://ns.adobe.com/xap/1.0/"
            xmlns:xmpGImg="http://ns.adobe.com/xap/1.0/g/img/">
         <xmp:CreatorTool>Adobe Illustrator CS6 (Windows)</xmp:CreatorTool>
         <xmp:CreateDate>2015-12-19T07:11:35-08:00</xmp:CreateDate>
         <xmp:ModifyDate>2015-12-19T07:11:35-08:00</xmp:ModifyDate>
         <xmp:MetadataDate>2015-12-19T07:11:35-08:00</xmp:MetadataDate>
         <xmp:Thumbnails>
            <rdf:Alt>
               <rdf:li rdf:parseType="Resource">
                  <xmpGImg:width>256</xmpGImg:width>
                  <xmpGImg:height>96</xmpGImg:height>
                  <xmpGImg:format>JPEG</xmpGImg:format>
                  <xmpGImg:image>/9j/4AAQSkZJRgABAgEASABIAAD/7QAsUGhvdG9zaG9wIDMuMAA4QklNA+0AAAAAABAASAAAAAEA&#xA;AQBIAAAAAQAB/+4ADkFkb2JlAGTAAAAAAf/bAIQABgQEBAUEBgUFBgkGBQYJCwgGBggLDAoKCwoK&#xA;DBAMDAwMDAwQDA4PEA8ODBMTFBQTExwbGxscHx8fHx8fHx8fHwEHBwcNDA0YEBAYGhURFRofHx8f&#xA;Hx8fHx8fHx8fHx8fHx8fHx8fHx8fHx8fHx8fHx8fHx8fHx8fHx8fHx8fHx8f/8AAEQgAYAEAAwER&#xA;AAIRAQMRAf/EAaIAAAAHAQEBAQEAAAAAAAAAAAQFAwIGAQAHCAkKCwEAAgIDAQEBAQEAAAAAAAAA&#xA;AQACAwQFBgcICQoLEAACAQMDAgQCBgcDBAIGAnMBAgMRBAAFIRIxQVEGE2EicYEUMpGhBxWxQiPB&#xA;UtHhMxZi8CRygvElQzRTkqKyY3PCNUQnk6OzNhdUZHTD0uIIJoMJChgZhJRFRqS0VtNVKBry4/PE&#xA;1OT0ZXWFlaW1xdXl9WZ2hpamtsbW5vY3R1dnd4eXp7fH1+f3OEhYaHiImKi4yNjo+Ck5SVlpeYmZ&#xA;qbnJ2en5KjpKWmp6ipqqusra6voRAAICAQIDBQUEBQYECAMDbQEAAhEDBCESMUEFURNhIgZxgZEy&#xA;obHwFMHR4SNCFVJicvEzJDRDghaSUyWiY7LCB3PSNeJEgxdUkwgJChgZJjZFGidkdFU38qOzwygp&#xA;0+PzhJSktMTU5PRldYWVpbXF1eX1RlZmdoaWprbG1ub2R1dnd4eXp7fH1+f3OEhYaHiImKi4yNjo&#xA;+DlJWWl5iZmpucnZ6fkqOkpaanqKmqq6ytrq+v/aAAwDAQACEQMRAD8A9U4q7FXYq7FXYq7FXYq7&#xA;FXYq7FXYq7FXYq7FXYq7FXYq7FXYq7FXYq7FXYq7FXYq7FXYq7FXYq7FXYq7FXYq7FXYq7FXYq7F&#xA;XYq7FXYq7FXYq7FXYq7FXYq7FXYq7FUiv/O3l2w1ddIubhlv2ZEEYjkI5S04fFx478h3zGnqscZc&#xA;JO6aRmv67ZaHpr6heLI1ujKrekoZgWNBsSO+WZswxx4jyQAv0PWLbWdKg1K2SSOC4DFFlAVxxYru&#xA;AWHVfHDiyjJESHIqUdlirZZY4o3llYJHGpZ3Y0AUCpJPtgJrdUv0XzFpGtpO+mT+vHbv6cj8WUcq&#xA;V25AVyvFnjkvhN0mkyJAFTsBlqGGQef9Q1Sa7/w7o51G0siBLcyTrBz67RqVJNabfiMwBrJTJ8OP&#xA;EB50mlfSPPg1ny5e6np1kXvrEVlsHkC+9RJTccQxG29KZLHrPExmURuOi0v8g+b7rzNZ3c9xAkDW&#xA;8oRVjJIKla7171w6PUnKCSKpSKZTmYh2KuxVRe9s47hLZ541uZN44GdQ7f6qk1PTImYBq91Vskrs&#xA;VdirsVdirsVdirsVdirsVdirsVdirsVdirsVdirsVeV/m/SDXtDu6FioNVUfERHIrUH/AAWabtLa&#xA;cSyir+e/M+oaj5YvbWXy/fWkTGNhdTrRE4yqatTx6ZPWaiUsZBhIeagIrQvMb6H+U9rqKqJLhBJF&#xA;ArdObXDqvKnYDfJYc/h6YS6/tUjddY6B5l1jyymsNr98mr3MX1i3hhk9O2FfiRDGgH2h3/DDDDkn&#xA;j4+OXEd/JbWeV9evvNXkvVLa/uJI7q0Qq91DxR5EKFlDbEb8SrbbjBp8xzYpCR3CkUUJ+TOnF7O4&#xA;vvrdwginZDZqwED1jX4nWlSwr45DsuGxlZ58uiyenMqspVhVWFCPY5t2Lyqfy/5t8iXdxqGh0vtG&#xA;f4p4GHJgi1p6iijfDX7a/TmmOHLpyZQ3iyu2TeW/MWia55c1OfT7RLG5SJ/r1uiqPjZG4tyULyBo&#xA;aEjMvBnhkxyMRR6oIYX+W2i+YtT0u8jsNU/RdiZh60kSlp2kCCgBqvFaHscwNDiyTieGXCL+LIsh&#xA;/KnzFql5Zasmp3T3UNgY3jnkJduLCQv8Z+Jh8AIrmT2dnlIS4jdIkFvlzUPMXnWa+vP0lLpWmQP6&#xA;VtBahQ5J3q7kEmi0r/DHBPJqCTxcMR3Kdlbyj5l12382XflTWp/rjxcjbXZUK+yiQcqdmQ136YdN&#xA;nmMpxTN+akMctLPzFN+aV4be6tpdVtQzm4mRlhIESx04IWIIV6dcxYxyHUmiOIJ6PYs3rB2KuxV2&#xA;KuxV2KuxV2KuxV2KuxV2KuxV2KuxV2KuxV2KvOPzh0nVtQbR/wBH2c90YzcczBGz8S3pceRUHjWh&#xA;65qu08cpcPCCef6GUWS+b7PUNS8l3dvDC0l9PDGfQFOXLkrMN6dKHMvUxlPEQBvSBzSLQPJ19ffl&#xA;22g6pG1jc+o7wFqEqeXqIxAJ2qSCMx8OmMsHBLYpJ3b0E/mDpGkNoraOlzJArR2V+txEsYUn4Syk&#xA;8iFrtsDTt3xw+PCPBw3XI2ppNvJvktNC0GaxmkEl1ehjdypXjuvEKtabKDl2l0vhwIPM80EpX+X3&#xA;ljzd5euZ7O5+q/olpGkeRSzSyNw4r6fTiNhXkMp0Wny4iQa4Uks4uIRPbywlmQSoyFkNGHIUqp7H&#xA;NjIWKYsI0bSvPugW1zp0Udvq9tI7NBczzMpQMtKMjBttq8QfpzX4sebGDHaQ97LZf5X8g3eh+XtV&#xA;i9ZJtW1K3aMBaiJGCMEUNsT8T7nHT6M44SF+qQUlFflt5a1TQNKurbUVRZZZ/UQI3IceCr1HuMno&#xA;cEscSJd6CUt/Lzyp5g0UajY6laxLY3dQ04lq7BQVHFV5bHl3IIyrRaeeOxIbFJKj5c0vzR5Lvryz&#xA;TT5NW0e5YPDPbsgkVgKAlGI6jZq7eByODHkwEiuKJU7pj5X8r6q/me98061EttdXFVtbMMJCiFQl&#xA;XZaioRQu3vlun08vEOSexPIIJSi2s9d0r8zL7UBpFxd217VIZohSMCQoebSEcBTiagkZTGM4agy4&#xA;SQU9HpmbZi7FXYq7FXYq7FXYq7FXYq7FXYq7FXYq7FXYq7FXYq7FXYq7FXYq7FXYq7FXYqp3F1bW&#xA;yB7iZIUJChpGCgk9BU03wSkBzVUwq7FXYq7FXYq7FXYq7FXYq7FXYq7FXYq7FXYq7FXYq7FXYq7F&#xA;XYq7FXYq7FWKfmN5rvPL2jxS2Sqbq6k9JJHHJUABJanc+GYWu1BxQ25lICVXa/mBZppuo6TqTa9B&#xA;cUa6g9OFEIahHEihCtXr2ymXjx4ZRlx37k7Mz1XWtM0m0+t6lcLbQ9KtUknwVVqWPyGZ+TLGAuRp&#xA;igNG86+W9YuzZ2V1W7AJEEiPG5AFTx5gV28MrxarHM0DumkHF+ZflCSeaEXZT0EaR3kjdFITqF5A&#xA;Et4Cm+VjX4iSL5LSj/ytPyj9TF1603EuYynpMWBArv8AsivbfI/yhiq14U7ufMWnQ6A2ugtNYiIT&#xA;gxgFypp0DFRXfoTmRLPEQ4+i0wfzn5h8ka5p+lS6jJfRQycp4BDGBUcuDq5aqVBSnwk0+nNfqs2H&#xA;JGJlxJALN9X8waLoNjFNeziKFgEt0FXd6AbKBUnbvmwy5oYxZKKQGlefdB1DUV079/Z3sgrFDdxm&#xA;IvUVHGpI37eOV49ZCUuHcHzWkTrPnHy9o9ytre3NLphy9CNHlcLStWCBqbeOSy6qEDRO60itG8wa&#xA;PrNo13p1ys0KGkhoVKGlaMrAEZPFmjkFxKKQK+fPKDXAgXVIeZbgD8XCv/GSnD8cr/OYrriCaT7M&#xA;lDsVdirsVdirsVdirsVdirsVdirsVdirsVdirsVdirsVdiqR+b4fLNxpi2vmCaOG2mcCF3bgwkAN&#xA;GQ9iB9HjmPqRjManySHnutab5k/L2SC80vUGudImk4fV5d1DEcuLp9n4gD8S0OavLDJpqMTcWXNr&#xA;z1q91ceZ/Ld+8S/VJbe2uraCduMQeV+Teo1O3w8tugx1eQnJCXSgVDIp/KvmnUvNGma5qkthZmzd&#xA;AqWzSmSRFYvwJcUJO427HMo6fJLJGcuEV3ItKbe3sLj857tJoVkQDkiOvIeotuhLUPvU5TGMTqzf&#xA;42XozW48laC2kalp1vbrCupFpJnqWPqmpRxyJpwboBtmfLSw4TED6kW8vsdS1Cby03kYAjUn1EW4&#xA;Q1okPIu//AypU+xzUQySOPwf4uKvx8WXmnP5r6da6X5b0PTbf+7t3ZEr1IVByY+5Jqcv7RgIY4xH&#xA;REVvm29+r+dvLN/fgrpiwW7ozbop5EufCq1Un2pg1M6zQlL6aCjkz7UdI8uXesadqN56Z1CLawYy&#xA;cS9KuOKgjnTdhmznjxykJH6uiHm3lGfzF/jXWhZi1bVZGlDnUGkWirJuFCAk9tvDNTpjk8aVVxeb&#xA;I8mR6N5Rv9KbzDfa5fWlpb6rC6zfVWcRxNMW+P8AeBePHn8Ir3zKxaaUOOUyAJDoi2JzC70PRotJ&#xA;120XUfK9zN6tpqNk4ryNTyR9xUivwsB33zDN44cMxxYydiEvY9Oe1fT7V7Q8rRoYzbkkmsZUFNzv&#xA;9nxzewI4RXJgiMkrsVdirsVdirsVdirsVdirsVdirsVdirsVdirsVdirsVSvzH5b0zzBp/1K/VuA&#xA;YPHJGQHRhtVSQR0PcZTnwRyxqSQUlX8uraf0E1bVLzVLW1IaC0mcCPbYc6Dk23vmP+SBrikZAdFt&#xA;O9a8taNrVklnf24eGL+541RozSnwFaU+XTMjLghkFSC2gdM8i6HYTwT1uLuS1NbQXUzSLD/xjTZR&#xA;92V49JCJB3NcrPJbRUflTQ49efXlgP6TetZeb03Tgfhrx+z7ZMaeAnx16ltN8vQlcXlfQotbfW47&#xA;ULqUgIafk3ccSQteIJG1QMpGngJ8depNt635a0TXEhTVLb6wsBLRDm6ULUr9hl8McuCGT6hdKCqa&#xA;noOkapYCwvrZZrVacENRx4igKlSCtB4ZLJhjOPDIbItBaP5J8taRci6s7Slwo4xyyO8rIvgnMnj9&#xA;GV4tJjgbA3TazWvI+gateLfTRyW9+tP9LtnMUhoKCpGxNO9K4MukhM8R2l3hbVbfydoUNheWRieZ&#xA;NQAF7JNI8ksnH7JZ2NfhrtTCNNARI/nc1tJj+V2lvBDZz6lfzaZbv6kNg8q+mCfkoPc9PHKP5PjV&#xA;GUuEdFtmEEMUEMcEKhIolCRoOgVRQD6BmcAAKCF+FXYq7FXYq7FXYq7FXYq7FXYq7FXYq7FXYq7F&#xA;XYq7FXYq7FXYq7FXYq7FXYq7FXYq7FXYq7FXYq7FXYq7FXYq7FXYq7FXYq7FXYq7FXYq7FXYq7FX&#xA;Yq7FXYq7FXYq7FXYq7FXYq7FXYq7FXYq7FXYq7FXYq7FXYq7FXYq7FXYq7FXYq7FXYq7FXYq7FXY&#xA;q7FXYq7FXYq7FXYq7FXYq7FXYq7FXYq7FXYq7FXYq7FXYq7FXYq7FXYq7FXYq7FXYq7FXYq7FXYq&#xA;7FXYq7FXYq7FXYq7FXYq7FXYq7FXYq7FXYq7FXYq7FXYq7FXYq7FXYq//9k=</xmpGImg:image>
               </rdf:li>
            </rdf:Alt>
         </xmp:Thumbnails>
      </rdf:Description>
      <rdf:Description rdf:about=""
            xmlns:xmpMM="http://ns.adobe.com/xap/1.0/mm/"
            xmlns:stRef="http://ns.adobe.com/xap/1.0/sType/ResourceRef#"
            xmlns:stEvt="http://ns.adobe.com/xap/1.0/sType/ResourceEvent#">
         <xmpMM:RenditionClass>proof:pdf</xmpMM:RenditionClass>
         <xmpMM:OriginalDocumentID>uuid:65E6390686CF11DBA6E2D887CEACB407</xmpMM:OriginalDocumentID>
         <xmpMM:DocumentID>xmp.did:E503F23662A6E511A95881F5A627E81A</xmpMM:DocumentID>
         <xmpMM:InstanceID>xmp.iid:E503F23662A6E511A95881F5A627E81A</xmpMM:InstanceID>
         <xmpMM:DerivedFrom rdf:parseType="Resource">
            <stRef:instanceID>xmp.iid:E403F23662A6E511A95881F5A627E81A</stRef:instanceID>
            <stRef:documentID>xmp.did:E403F23662A6E511A95881F5A627E81A</stRef:documentID>
            <stRef:originalDocumentID>uuid:65E6390686CF11DBA6E2D887CEACB407</stRef:originalDocumentID>
            <stRef:renditionClass>proof:pdf</stRef:renditionClass>
         </xmpMM:DerivedFrom>
         <xmpMM:History>
            <rdf:Seq>
               <rdf:li rdf:parseType="Resource">
                  <stEvt:action>saved</stEvt:action>
                  <stEvt:instanceID>xmp.iid:105F3DBEC2A5E51195F194A4B483B5DD</stEvt:instanceID>
                  <stEvt:when>2015-12-18T12:05:53-08:00</stEvt:when>
                  <stEvt:softwareAgent>Adobe Illustrator CS6 (Windows)</stEvt:softwareAgent>
                  <stEvt:changed>/</stEvt:changed>
               </rdf:li>
               <rdf:li rdf:parseType="Resource">
                  <stEvt:action>saved</stEvt:action>
                  <stEvt:instanceID>xmp.iid:E503F23662A6E511A95881F5A627E81A</stEvt:instanceID>
                  <stEvt:when>2015-12-19T07:11:35-08:00</stEvt:when>
                  <stEvt:softwareAgent>Adobe Illustrator CS6 (Windows)</stEvt:softwareAgent>
                  <stEvt:changed>/</stEvt:changed>
               </rdf:li>
            </rdf:Seq>
         </xmpMM:History>
      </rdf:Description>
      <rdf:Description rdf:about=""
            xmlns:illustrator="http://ns.adobe.com/illustrator/1.0/">
         <illustrator:StartupProfile>Web</illustrator:StartupProfile>
      </rdf:Description>
      <rdf:Description rdf:about=""
            xmlns:xmpTPg="http://ns.adobe.com/xap/1.0/t/pg/"
            xmlns:stDim="http://ns.adobe.com/xap/1.0/sType/Dimensions#"
            xmlns:stFnt="http://ns.adobe.com/xap/1.0/sType/Font#"
            xmlns:xmpG="http://ns.adobe.com/xap/1.0/g/">
         <xmpTPg:NPages>1</xmpTPg:NPages>
         <xmpTPg:HasVisibleTransparency>False</xmpTPg:HasVisibleTransparency>
         <xmpTPg:HasVisibleOverprint>False</xmpTPg:HasVisibleOverprint>
         <xmpTPg:MaxPageSize rdf:parseType="Resource">
            <stDim:w>1280.000000</stDim:w>
            <stDim:h>800.000000</stDim:h>
            <stDim:unit>Points</stDim:unit>
         </xmpTPg:MaxPageSize>
         <xmpTPg:Fonts>
            <rdf:Bag>
               <rdf:li rdf:parseType="Resource">
                  <stFnt:fontName>MarkoOne-Regular</stFnt:fontName>
                  <stFnt:fontFamily>Marko One</stFnt:fontFamily>
                  <stFnt:fontFace>Regular</stFnt:fontFace>
                  <stFnt:fontType>Open Type</stFnt:fontType>
                  <stFnt:versionString>Version 1.003</stFnt:versionString>
                  <stFnt:composite>False</stFnt:composite>
                  <stFnt:fontFileName>marko-one.regular.ttf</stFnt:fontFileName>
               </rdf:li>
            </rdf:Bag>
         </xmpTPg:Fonts>
         <xmpTPg:PlateNames>
            <rdf:Seq>
               <rdf:li>Cyan</rdf:li>
               <rdf:li>Magenta</rdf:li>
               <rdf:li>Yellow</rdf:li>
               <rdf:li>Black</rdf:li>
            </rdf:Seq>
         </xmpTPg:PlateNames>
         <xmpTPg:SwatchGroups>
            <rdf:Seq>
               <rdf:li rdf:parseType="Resource">
                  <xmpG:groupName>Default Swatch Group</xmpG:groupName>
                  <xmpG:groupType>0</xmpG:groupType>
               </rdf:li>
            </rdf:Seq>
         </xmpTPg:SwatchGroups>
      </rdf:Description>
      <rdf:Description rdf:about=""
            xmlns:pdf="http://ns.adobe.com/pdf/1.3/">
         <pdf:Producer>Adobe PDF library 10.01</pdf:Producer>
      </rdf:Description>
   </rdf:RDF>
</x:xmpmeta>
                                                                                                    
                                                                                                    
                                                                                                    
                                                                                                    
                                                                                                    
                                                                                                    
                                                                                                    
                                                                                                    
                                                                                                    
                                                                                                    
                                                                                                    
                                                                                                    
                                                                                                    
                                                                                                    
                                                                                                    
                                                                                                    
                                                                                                    
                                                                                                    
                                                                                                    
                                                                                                    
                           
<?xpacket end="w"?>
	</metadata>
<text transform="matrix(1 0 0 1 -22 438)" fill="#FFFFFF" font-family="'MarkoOne-Regular'" font-size="400">RW</text>
<text transform="matrix(1 0 0 1 939 447)" fill="#FFFFFF" font-family="'MarkoOne-Regular'" font-size="48">LLC</text>
<g>
	<g enable-background="new    ">
		<path fill="#898D39" d="M792.229,160.158c0.947,0.857,1.447,1.862,1.499,3.013c0.052,1.151,0.045,2.823-0.021,5.016
			c-0.198,6.578-0.187,12.287,0.032,17.125c0.546,12.117,1.095,24.233,1.642,36.35c0.405,8.976,3.598,21.578,2.577,23.404
			c-0.569,1.019-6.951,1.839-11.535,2.057s-9.093-0.279-9.559-1.062c-2.311-3.882,0.189-15.849,0.039-18.892
			c-0.379-7.655-0.567-11.482-0.946-19.137c-11.296,0.085-22.59,0.198-33.885,0.339c0.955,13.139,6.423,35.345,4.011,39.328
			c-0.667,1.101-6.928,1.923-11.51,2.195s-9.14-0.2-9.571-0.947c-1.878-3.248,0.567-14.593,0.302-18.921
			c-0.957-15.635-1.921-31.269-2.88-46.903c-0.32-5.225-1.19-8.264-2.6-9.117c-0.643-0.389-1.372-0.667-2.187-0.832
			c-0.814-0.164-1.332-0.248-1.41-0.295c-0.603-0.363-1.052-1.998-1.163-3.772c-0.111-1.774-0.239-3.507-0.05-3.725
			c0.595-0.683,5.346-0.922,9.937-1.2s14.37-1.315,15.381-0.316c2.576,2.547-0.433,34.243,1.227,35.555
			c0.511,0.404,6.65-0.849,12.288-1.155s12.857-0.18,21.647,0.402c-0.375-7.584-0.563-11.376-0.938-18.96
			c-0.241-4.877-0.718-9.917-1.43-15.124c-0.125-1.026-0.187-1.54-0.312-2.566C780.58,161.257,784.46,160.885,792.229,160.158z"/>
		<path fill="#898D39" d="M883.746,210.18c0.127,5.117-0.711,9.944-2.504,14.482c-1.793,4.54-4.397,8.327-7.798,11.227
			c-7.543,6.434-17.683,9.227-27.46,9.457c-5.68,0.133-11.075-0.926-16.025-3.358s-8.957-5.938-12.023-10.527
			c-3.066-4.588-4.741-10.148-5.01-16.686c-0.269-6.537,1.247-12.495,4.545-17.864c7.239-11.786,21.101-16.391,34.258-16.71
			c8.14-0.198,15.49,2.205,21.805,7.388C880.11,192.986,883.506,200.536,883.746,210.18z M830.913,213.516
			c0.247,6.675,2.475,12.435,6.666,17.289c4.191,4.855,9.015,7.142,14.351,7.017c12.129-0.285,14.799-14.551,14.254-23.944
			c-0.437-7.535-2.262-14.023-6.127-18.752c-3.865-4.728-8.691-7.002-14.463-6.809c-2.906,0.097-5.4,0.887-7.479,2.367
			s-3.623,3.436-4.641,5.854C831.521,201.179,830.666,206.84,830.913,213.516z"/>
		<path fill="#898D39" d="M933.26,229.327c0.814,0.074,2.754,3.165,2.549,3.95c-1.274,4.885-11.371,10.004-18.363,10.125
			c-4.567,0.079-7.867-1.626-9.804-5.094c-1.688-3.022-2.875-8.412-3.294-15.815c-0.608-10.768,0.796-30.796-1.154-32.738
			c-0.906-0.903-7.18-0.081-7.685-0.423c-0.196-0.133-0.339-1.458-0.383-3.45s0.034-3.086,0.234-3.287
			c3.116-0.35,4.674-0.523,7.792-0.868c-0.017-0.82-1.56-7.765,0.129-11.782c0.694-1.653,5-3.625,8.95-4.772
			c3.95-1.146,10.178-2.204,10.557-1.792c0.855,0.931-2.216,16.866-1.129,18.007c0.266,0.279,10.057-1.158,12.247,0.521
			c0.238,0.183,0.331,1.931,0.356,3.806s-0.075,3.267-0.263,3.401c-1.658,1.182-11.718,0.197-12.567,1.066
			c-1.023,1.046-0.074,10.52,0.041,17.609s0.393,13.78,0.814,20.059c0.162,2.419,1.448,3.609,3.859,3.572
			S932.207,229.231,933.26,229.327z"/>
		<path fill="#898D39" d="M983.186,224.418c-0.01-4.57,2.709-6.865,8.156-6.867c2.765-0.001,7.453,0.881,8.17,2.056
			c1.234,2.022,1.061,8.761,3.203,11.402s5.813,3.969,11.017,3.994s9.025-0.905,11.471-2.801c2.445-1.895,3.687-4.934,3.721-9.114
			c0.036-4.453-1.735-8.275-5.278-11.465c-2.912-2.622-6.303-4.924-10.167-6.856c-3.864-1.931-6.982-3.513-9.347-4.749
			s-4.614-2.599-6.758-4.086c-2.144-1.486-4.062-3.087-5.734-4.807c-3.601-3.7-5.409-8.147-5.417-13.324
			c-0.008-5.176,1.397-9.581,4.238-13.1c6.441-7.98,17.335-10.521,27.15-10.361c9.546,0.156,17.017,2.016,22.025,5.86
			c4.573,3.51,6.831,7.422,6.779,11.679c-0.024,1.992-0.752,3.623-2.183,4.896s-3.625,1.893-6.578,1.863s-8.284-0.973-9.087-2.252
			c-0.067-0.106,0.005-0.527,0.007-0.762c0.035-4.336-0.953-7.819-2.971-10.452c-2.018-2.631-5.088-3.963-9.205-3.985
			s-7.387,1.06-9.801,3.24c-2.414,2.181-3.621,5.402-3.631,9.659c-0.008,3.672,1.893,6.894,5.632,9.684
			c2.613,1.95,6.043,3.969,10.286,6.024c4.243,2.056,7.596,3.734,10.058,5.023c2.462,1.29,4.808,2.737,7.037,4.341
			c2.229,1.604,4.188,3.362,5.88,5.247c3.686,4.104,5.521,8.806,5.455,14.098c-0.065,5.293-1.604,9.746-4.604,13.365
			c-3,3.62-6.972,6.35-11.923,8.201s-9.919,2.763-14.911,2.737s-9.206-0.42-12.641-1.19s-6.344-1.788-8.73-3.059
			c-2.387-1.27-4.452-2.706-6.195-4.305C984.908,231.131,983.193,227.855,983.186,224.418z"/>
		<path fill="#898D39" d="M1107.838,229.493c0.479-8.92,0.718-13.381,1.198-22.301c0.009-0.352,0.024-0.908,0.045-1.669
			s0.039-1.495,0.058-2.198s0.024-1.385,0.021-2.05c-0.003-0.664-0.034-1.299-0.101-1.907c-0.066-0.607-0.144-1.186-0.23-1.735
			c-0.087-0.549-0.218-1.052-0.39-1.506c-0.172-0.453-0.386-0.869-0.642-1.247s-0.563-0.717-0.924-1.02s-0.79-0.598-1.268-0.825
			c-0.896-0.427-2.482-0.648-4.649-0.702c-4.99-0.123-15.129,3.827-17.297,8.519c-3.423,7.407,1.664,37.567-1.204,40.765
			c-1.095,1.221-8.27,0.949-11.18,0.896s-7.056-0.597-7.44-1.24c-2.186-3.656,1.506-22.548,1.71-33.727
			c0.249-13.611,0.553-27.551,0.122-41.019c-0.123-3.854-6.318-5.497-7.614-6.74c-0.068-0.065-0.091-0.592-0.17-1.058
			c-0.145-0.855-0.224-1.469-0.219-1.82c0.007-0.469-0.016-1.058,0.077-1.171c1.777-2.154,10.072-3.057,13.794-3.44
			c3.722-0.382,6.389-0.556,7.998-0.524s2.78-0.033,2.97,0.06c0.798,0.39,1.531,3.937,1.69,8.238
			c0.159,4.302,0.162,9.917,0.02,16.85c-0.143,6.933-0.371,15.143-0.371,15.143c0.316,0.128,8.097-7.311,12.984-9.385
			c4.886-2.073,9.757-3.043,14.596-2.914c4.838,0.13,8.58,1.762,11.216,4.888c2.635,3.125,4.095,7.352,4.32,12.614
			c0.101,2.338,0.099,4.752,0.023,7.212s-0.432,6.474-1.067,12.043c-0.638,5.57-1.021,10.56-1.154,14.972
			c-0.03,1.016,0.693,1.818,2.175,2.412c1.48,0.593,2.942,0.912,4.38,0.958c1.437,0.045,2.808-0.212,2.956-0.139
			c0.36,0.177,0.661,2.042,0.633,2.921s-0.058,1.643-0.18,1.783c-3.244,3.754-13.377,5.269-17.095,5.162
			c-3.719-0.106-6.31-1.397-7.781-3.878C1108.376,238.232,1107.706,234.492,1107.838,229.493z"/>
		<path fill="#898D39" d="M1216.673,214.529c-0.261,5.111-1.46,9.862-3.593,14.251c-2.134,4.39-5.016,7.97-8.627,10.603
			c-8.012,5.842-18.334,7.859-28.104,7.348c-5.675-0.297-10.973-1.763-15.724-4.564s-8.48-6.602-11.19-11.409
			s-3.956-10.479-3.729-17.019c0.228-6.538,2.19-12.363,5.885-17.467c8.108-11.202,22.283-14.742,35.426-14.064
			c8.133,0.419,15.284,3.373,21.188,9.021C1214.355,197.109,1217.165,204.894,1216.673,214.529z M1163.733,213.848
			c-0.26,6.675,1.526,12.588,5.338,17.746c3.811,5.159,8.446,7.805,13.777,8.084c12.114,0.636,15.863-13.386,16.031-22.793
			c0.135-7.545-1.19-14.156-4.686-19.164s-8.137-7.641-13.906-7.886c-2.906-0.124-5.454,0.475-7.638,1.793
			c-2.185,1.318-3.874,3.15-5.072,5.484C1165.277,201.592,1163.993,207.173,1163.733,213.848z"/>
		<path fill="#898D39" d="M1264.612,237.378c0.807,0.136,2.504,3.365,2.24,4.133c-1.64,4.772-12.101,9.112-19.084,8.702
			c-4.563-0.268-7.725-2.217-9.393-5.822c-1.454-3.142-2.231-8.608-2.087-16.021c0.21-10.782,3.13-30.646,1.332-32.73
			c-0.836-0.969-7.154-0.625-7.634-1.004c-0.187-0.148-0.228-1.479-0.12-3.469s0.268-3.076,0.484-3.261
			c3.135-0.113,4.702-0.168,7.838-0.275c0.046-0.819-0.963-7.861,1.025-11.738c0.818-1.595,5.259-3.236,9.287-4.08
			c4.027-0.843,10.318-1.425,10.665-0.985c0.782,0.993-3.488,16.652-2.491,17.872c0.244,0.298,10.118-0.392,12.176,1.449
			c0.224,0.2,0.188,1.948,0.07,3.82s-0.324,3.253-0.521,3.373c-1.745,1.053-11.705-0.694-12.618,0.108
			c-1.1,0.966-0.871,10.484-1.294,17.562s-0.655,13.77-0.71,20.063c-0.021,2.424,1.169,3.709,3.577,3.855
			C1259.763,239.074,1263.57,237.202,1264.612,237.378z"/>
		<path fill="#898D39" d="M727.567,376.747c-0.287-4.562,2.203-7.01,7.464-7.331c2.67-0.163,7.241,0.452,8.012,1.573
			c1.358,1.976,1.558,8.683,3.786,11.194s5.851,3.621,10.876,3.34s8.659-1.434,10.906-3.471c2.247-2.036,3.264-5.14,3.045-9.314
			c-0.233-4.447-2.177-8.159-5.79-11.135c-2.971-2.446-6.384-4.545-10.232-6.247c-3.849-1.701-6.954-3.097-9.313-4.192
			s-4.617-2.322-6.777-3.681c-2.16-1.358-4.109-2.843-5.829-4.461c-3.702-3.482-5.719-7.817-6.04-12.984
			c-0.321-5.166,0.762-9.69,3.302-13.325c5.674-8.118,16.025-11.585,25.605-11.935c9.162-0.335,16.563,1.012,21.632,4.553
			c4.631,3.234,7.045,7.005,7.251,11.257c0.097,1.99-0.509,3.662-1.814,5.016s-3.383,2.102-6.237,2.246s-8.056-0.494-8.915-1.711
			c-0.073-0.104-0.026-0.526-0.039-0.76c-0.228-4.33-1.395-7.75-3.502-10.259c-2.107-2.508-5.153-3.656-9.133-3.436
			s-7.073,1.494-9.273,3.812c-2.2,2.319-3.171,5.603-2.923,9.852c0.214,3.666,2.245,6.772,6.025,9.336
			c2.642,1.792,6.078,3.608,10.301,5.41c4.223,1.803,7.562,3.28,10.017,4.422c2.456,1.143,4.807,2.448,7.057,3.918
			s4.25,3.109,5.998,4.891c3.806,3.879,5.859,8.465,6.114,13.752c0.255,5.288-0.963,9.823-3.642,13.611
			c-2.679,3.79-6.351,6.749-11.019,8.888s-9.411,3.342-14.232,3.609s-8.91,0.121-12.273-0.446s-6.232-1.413-8.614-2.541
			c-2.382-1.127-4.467-2.439-6.247-3.933C729.638,383.349,727.783,380.178,727.567,376.747z"/>
		<path fill="#898D39" d="M826.469,376.671c3.98,3.4,8.525,5.004,13.652,4.818s12.771-6.915,15.283-7.149
			c0.938-0.087,3.928,3.516,3.734,4.452c-0.605,2.929-8.708,7.441-15.658,9.496c-2.822,0.834-6.106,1.334-9.837,1.476
			s-7.61-0.381-11.651-1.566s-7.692-2.996-10.953-5.435s-5.905-5.713-7.938-9.825c-2.032-4.111-3.169-8.722-3.402-13.835
			c-0.233-5.112,0.501-9.789,2.209-14.03s4.074-7.757,7.077-10.547c6.288-5.843,13.678-8.962,22.126-9.282
			c7.417-0.281,13.979,1.455,19.476,5.228c2.674,1.836,4.848,4.325,6.509,7.379s2.551,6.534,2.673,10.437
			c0.209,6.676-1.904,10.259-6.339,10.757c-11.692,1.264-23.379,2.578-35.061,3.939
			C819.787,368.711,822.488,373.271,826.469,376.671z M839.492,336.309c-2.705-2.521-6.178-3.705-10.414-3.542
			s-7.368,2.254-9.383,6.266s-3.578,15.617-2.584,16.438c1.949,1.61,24.361-2.14,26.469-4.356c0.404-0.426,0.258-2.766,0.213-4.054
			C843.63,342.415,842.197,338.83,839.492,336.309z"/>
		<path fill="#898D39" d="M910.997,346.169c-0.129-6.678-1.734-9.987-4.819-9.924c-2.255,0.046-4.396,0.727-6.425,2.04
			c-2.028,1.314-5.787,3.626-6.521,5.452c-3.194,7.948,3.463,38.766,0.639,42.242c-0.996,1.227-7.856,1.305-10.611,1.377
			s-6.705-0.27-7.153-0.92c-2.543-3.691,0.107-22.245-0.218-33.348c-0.151-5.482-0.226-8.223-0.377-13.706
			c-0.082-2.967-1.23-4.666-3.295-5.184c-1.417-0.355-5.064-0.189-5.783-0.771c-0.386-0.312-0.477-2.043-0.494-2.649
			c-0.018-0.605-0.082-1.279,0.017-1.438c1.874-2.997,12.632-5.113,21.042-5.322c1.389-0.035,2.794-0.191,3.095-0.018
			c1.038,0.599,1.926,3.939,2.193,6.042s0.65,6.022,0.65,6.022c0.561,0.169,9.566-10.446,13.176-11.894
			c1.729-0.693,3.568-1.066,5.513-1.104c3.968-0.076,7.172,0.953,9.607,3.08s3.684,5.283,3.75,9.462
			c0.051,3.203-1.094,5.897-3.427,8.083c-2.293,2.148-5.097,3.253-8.411,3.315c-0.71,0.013-1.421-0.033-2.134-0.136
			C911.005,346.591,911.003,346.45,910.997,346.169z"/>
		<path fill="#898D39" d="M984.414,321.014c7.463-0.015,11.193,3.508,11.188,10.539c-0.003,5.43-2.898,12.89-8.642,22.328
			c-6.29,10.336-11.611,27.101-16.842,32.225c-0.659,0.646-2.964,0.837-4.684,0.849s-3.402-0.309-5.049-0.96
			c-1.646-0.652-2.779-1.385-3.393-2.2s-1.967-3.771-4.073-8.869c-2.106-5.097-4.319-10.426-6.644-15.987
			c-2.323-5.561-4.92-10.921-7.79-16.08c-2.87-5.158-5.271-8.31-7.188-9.454c-0.639-0.38-4.947-0.146-5.714-0.851
			c-0.085-0.078-0.107-0.652-0.192-1.023c-0.085-0.37-0.155-0.655-0.191-0.847c-0.15-0.792-0.25-1.916-0.035-2.226
			c2.128-3.069,12.123-4.928,19.264-5.009c1.31-0.015,2.55-0.136,2.916,0.027c1.361,0.608,4.171,6.386,7.448,14.135
			c4.724,11.169,12.249,34.332,12.249,34.332c0.748,0.003,10.929-28.484,13.109-42.54c0.146-0.937,0.174-2.081,0.17-3.312
			s-0.861-2.62-1.144-3.541c-0.073-0.239,0.572-0.696,1.723-1.031C982.052,321.185,983.224,321.016,984.414,321.014z"/>
		<path fill="#898D39" d="M1009.831,337.797c-0.037-2.918-1.104-4.692-3.129-5.286c-1.319-0.387-4.984-0.341-5.695-0.953
			c-0.375-0.323-0.412-2.058-0.411-2.664c0.001-0.605-0.044-1.28,0.061-1.436c1.967-2.937,12.886-4.712,21.496-4.653
			c1.389,0.009,2.783-0.103,3.094,0.081c0.963,0.57,1.728,5.233,2.238,10.095c0.233,2.216,0.439,5.698,0.391,10.257
			c-0.147,13.873,2.105,38.358-0.812,41.714c-1.041,1.197-7.954,1.055-10.827,1.04s-6.879-0.489-7.297-1.147
			c-2.021-3.178,1.129-17.838,1.159-25.28S1009.92,344.752,1009.831,337.797z M1011.618,294.971c2.276-1.95,4.928-2.907,7.686-2.89
			s5.031,0.864,6.815,2.538c1.784,1.675,2.663,4.016,2.638,7.023c-0.025,3.009-1.203,5.527-3.527,7.561s-4.966,3.04-7.929,3.023
			s-5.285-0.927-6.97-2.73c-1.685-1.803-2.524-4.11-2.515-6.922S1009.1,297.128,1011.618,294.971z"/>
		<path fill="#898D39" d="M1101.061,338.198c-0.09,5.878-3.342,8.819-9.576,8.674c-2.131-0.049-3.666-0.326-4.603-0.836
			c-0.937-0.509-1.41-0.808-1.402-0.88c0.069-0.688,0.214-1.499,0.23-2.281c0.08-3.67-1.054-6.616-3.402-8.834
			c-2.35-2.218-5.544-3.368-9.584-3.444s-7.322,1.579-9.831,4.957c-2.51,3.378-3.813,8.661-3.924,15.846
			c-0.112,7.187,1.886,13.566,5.971,19.145s8.678,8.416,13.809,8.521c4.425,0.09,8.893-1.589,13.4-5.04
			c1.038-0.795,2.653-2.802,3.127-2.855c0.359-0.041,1.723,1.36,2.619,2.378c0.896,1.019,1.728,2.37,1.603,2.883
			c-0.425,1.744-4.744,4.729-8.507,6.885c-5.126,2.936-10.795,4.33-16.929,4.212c-6.136-0.118-11.693-1.501-16.679-4.156
			c-4.986-2.655-8.898-6.399-11.74-11.239c-2.844-4.84-4.188-10.374-4.167-16.457c0.035-10.658,4.686-20.954,13.567-27.131
			c5.719-3.978,12.67-5.958,20.804-5.8c6.864,0.133,12.809,1.73,17.812,4.779c2.267,1.381,4.069,3.008,5.409,4.878
			S1101.091,336.226,1101.061,338.198z"/>
		<path fill="#898D39" d="M1135.698,375.802c3.721,3.683,8.138,5.615,13.266,5.805c5.127,0.19,13.244-5.963,15.767-6.013
			c0.941-0.019,3.656,3.795,3.395,4.714c-0.817,2.875-9.228,6.785-16.311,8.325c-2.875,0.625-6.187,0.883-9.916,0.75
			c-3.73-0.132-7.563-0.938-11.506-2.415s-7.451-3.55-10.523-6.222c-3.073-2.672-5.474-6.132-7.199-10.381
			c-1.726-4.249-2.521-8.931-2.38-14.047c0.142-5.115,1.218-9.726,3.231-13.831s4.636-7.437,7.834-10
			c6.698-5.367,14.291-7.937,22.739-7.638c7.416,0.262,13.831,2.472,19.038,6.638c2.532,2.026,4.521,4.669,5.954,7.837
			c1.433,3.167,2.067,6.704,1.903,10.605c-0.28,6.674-2.651,10.092-7.11,10.264c-11.754,0.405-23.507,0.858-35.257,1.362
			C1129.617,367.373,1131.977,372.12,1135.698,375.802z M1151.643,336.499c-2.514-2.712-5.893-4.146-10.129-4.293
			c-4.237-0.148-7.51,1.708-9.812,5.561c-2.303,3.853-4.712,15.314-3.78,16.206c1.825,1.748,24.448-0.351,26.713-2.407
			c0.435-0.395,0.461-2.741,0.51-4.029C1155.322,342.891,1154.156,339.212,1151.643,336.499z"/>
		<path fill="#898D39" d="M1184.346,370.396c0.891-0.129,2.217-0.134,3.924-0.055s6.172,1.273,6.701,2.369
			c0.058,0.119-0.102,0.895-0.143,1.752c-0.041,0.858,0.115,1.923,0.467,3.191c0.352,1.27,0.939,2.451,1.741,3.545
			c1.769,2.413,4.799,3.753,9.102,3.971c4.302,0.218,7.252-1.096,8.677-3.895c1.293-2.54,1.227-5.358-0.155-8.281
			c-1.023-2.165-3.975-4.361-8.818-6.498c-0.806-0.355-1.951-0.894-3.354-1.457c-8.706-3.498-19.205-10.506-18.904-21.071
			c0.111-3.917,1.454-7.301,3.836-9.914c4.479-4.916,11.869-7.139,22.06-6.622c6.699,0.34,12.29,2.008,16.753,4.99
			s6.577,6.469,6.353,10.447c-0.251,4.446-2.567,6.543-6.946,6.304c-3.116-0.171-5.284-0.629-6.511-1.378s-1.838-1.163-1.834-1.242
			c0.013-0.234,0.023-0.448,0.034-0.644c0.385-7.293-3.023-11.136-10.228-11.499c-2.493-0.125-4.492,0.414-5.998,1.61
			c-1.507,1.197-2.319,3.017-2.438,5.454c-0.118,2.438,0.662,4.502,2.34,6.188c1.677,1.687,4.98,3.645,9.902,5.893
			s8.069,3.78,9.445,4.545c8.545,4.751,12.732,10.484,12.349,17.231c-0.332,5.85-3.064,10.202-8.181,13.068
			c-5.117,2.867-11.766,4.084-19.965,3.671c-5.428-0.273-9.503-0.938-12.232-2.005c-2.73-1.068-4.794-2.023-6.185-2.87
			s-2.525-1.718-3.405-2.618c-0.881-0.899-1.612-1.842-2.198-2.798c-1.55-2.528-1.948-5.054-1.137-7.557
			C1180.083,372.108,1181.772,370.769,1184.346,370.396z"/>
	</g>
</g>
</svg>
